<svg width="65" height="67" viewBox="0 0 65 67" fill="none" xmlns="http://www.w3.org/2000/svg">
<path d="M45.552 26.2771C43.8555 21.6511 35.7558 12.0673 22.2204 20.7514C15.8929 25.011 16.6026 39.5353 16.8558 41.4998C17.2578 44.6195 19.607 54.0039 32.9498 49.1946C37.9018 47.3259 42.5327 39.0723 44.2292 35.1791M44.2292 35.1791L48.3559 17.7285M44.2292 35.1791C42.3034 42.5991 41.9184 55.6253 55.7839 48.3702C64.8625 43.4235 63.0743 22.4003 62.3865 20.0644C61.6987 17.7285 57.8472 6.04888 46.5677 3.43815C35.2882 0.827418 29.6968 2.36178 25.3843 3.43815C20.5588 4.64255 11.599 9.81631 8.74018 16.0796C7.10522 19.6615 2.00007 30.9806 2 38.0647C1.99993 45.1627 5.45555 53.5238 9.56536 57.3016C17.2578 64.3728 21.1199 65.6834 32.2619 64.7216C41.1754 63.9521 50.1898 60.2788 53.5829 58.5383" stroke="#F97D56" stroke-width="4" stroke-linecap="round"/>
</svg>
