<svg width="57" height="60" viewBox="0 0 57 60" fill="none" xmlns="http://www.w3.org/2000/svg">
<path d="M15.6834 3.2061L14.8488 2.79469L13.9965 3.16813C10.9915 4.48482 6.81768 7.08764 4.27007 10.7155C2.9755 12.559 2.04587 14.7484 2.00164 17.2095C1.95702 19.6928 2.81812 22.2403 4.73851 24.7646C6.8195 27.5001 8.61616 30.1276 10.3489 32.6899C10.5229 32.9473 10.6965 33.2043 10.8698 33.4608C12.4127 35.7451 13.9302 37.9919 15.5457 40.1685C19.1684 45.0495 23.3211 49.6316 29.6686 53.9639C34.8813 57.5217 39.3904 58.4216 43.0188 57.8347C46.3753 57.2918 48.7773 55.5043 50.082 53.7807C51.6075 52.7258 53.306 50.8097 53.8361 48.1314C54.4292 45.1343 53.4714 41.6576 50.1602 37.9851C46.1461 33.5332 42.1493 32.0312 38.7863 32.86C35.5394 33.6603 33.501 36.5498 33.501 39.3244C33.501 39.6966 33.41 39.8236 33.3871 39.8541C33.3522 39.9005 33.2651 39.9869 33.0415 40.0698C32.6892 40.2004 32.2147 40.2408 31.7651 40.2163L21.1727 28.9033C20.8302 28.1537 20.5077 27.1031 20.4924 26.1649C20.4763 25.1819 20.7638 24.6988 21.3295 24.4199C25.9472 22.1437 28.4486 16.3589 25.9929 11.5168C25.0048 9.56864 22.9236 7.7851 21.0476 6.43714C19.0942 5.03368 17.021 3.86543 15.6834 3.2061Z" stroke="#F97D56" stroke-width="4"/>
</svg>
