<svg width="53" height="56" viewBox="0 0 53 56" fill="none" xmlns="http://www.w3.org/2000/svg">
<path d="M12.9168 2.58495C10.0859 3.90145 6.33565 6.35004 4.10625 9.6861C2.97611 11.3772 2.20193 13.3509 2.20337 15.5432C2.20482 17.7486 2.99137 20.0247 4.72521 22.3038C6.71113 24.9143 8.42476 27.4205 10.0727 29.8575C10.2382 30.1023 10.4032 30.3466 10.5678 30.5903C12.0356 32.7633 13.4734 34.892 15.0037 36.9539C18.4294 41.5694 22.3471 45.8909 28.336 49.9785C33.2281 53.3175 37.4131 54.1322 40.7391 53.5942C43.8576 53.0898 46.0659 51.4177 47.2374 49.8421C48.6346 48.8937 50.2088 47.1405 50.6945 44.6866C51.2276 41.9933 50.3832 38.8113 47.2951 35.3862C43.5287 31.209 39.8696 29.8961 36.875 30.6342C33.9674 31.3509 32.1551 33.9371 32.1551 36.3907C32.1551 36.8189 32.0475 37.0275 31.9664 37.1356C31.8763 37.2556 31.7223 37.3774 31.4562 37.476C31.0114 37.6409 30.4301 37.6738 29.9172 37.6279L19.6941 26.7094C19.3421 25.9578 18.9992 24.8731 18.9831 23.885C18.9663 22.8589 19.2764 22.2172 20.003 21.859C24.2222 19.7792 26.4761 14.5092 24.2564 10.1324C23.4097 8.46301 21.6545 6.90125 19.9798 5.66654C18.2529 4.39333 16.3869 3.3079 15.0728 2.63016C14.4024 2.28439 13.6088 2.26311 12.9168 2.58495Z" stroke="#F97D56" stroke-width="3"/>
</svg>
