<svg width="35" height="35" viewBox="0 0 35 35" fill="none" xmlns="http://www.w3.org/2000/svg">
<path d="M9.87235 1.79021L9.40635 1.56051L8.93049 1.76902C7.25268 2.50417 4.92232 3.95741 3.49991 5.98296C2.77711 7.01225 2.25806 8.23469 2.23337 9.60879C2.20845 10.9953 2.68924 12.4177 3.76146 13.8271C4.92334 15.3544 5.92648 16.8214 6.8939 18.252C6.99109 18.3957 7.088 18.5392 7.18474 18.6824C8.04619 19.9578 8.8935 21.2123 9.79546 22.4275C11.8181 25.1528 14.1367 27.7111 17.6807 30.13C20.5912 32.1164 23.1087 32.6189 25.1346 32.2912C27.0087 31.9881 28.3498 30.9901 29.0782 30.0277C29.93 29.4387 30.8783 28.3689 31.1743 26.8735C31.5055 25.2001 30.9706 23.259 29.1219 21.2085C26.8807 18.7228 24.6491 17.8842 22.7715 18.347C20.9586 18.7938 19.8205 20.4071 19.8205 21.9563C19.8205 22.1641 19.7697 22.235 19.7569 22.252C19.7375 22.2779 19.6888 22.3262 19.5639 22.3724C19.3673 22.4453 19.1024 22.4679 18.8513 22.4542L12.9372 16.1378C12.746 15.7193 12.5659 15.1327 12.5574 14.6089C12.5484 14.06 12.7089 13.7903 13.0247 13.6346C15.603 12.3637 16.9996 9.13387 15.6285 6.43038C15.0768 5.34263 13.9148 4.34683 12.8673 3.59421C11.7767 2.81061 10.6192 2.15834 9.87235 1.79021Z" stroke="#F97D56" stroke-width="2.23333"/>
</svg>
