<svg width="61" height="60" viewBox="0 0 61 60" fill="none" xmlns="http://www.w3.org/2000/svg">
<path d="M19.1339 37.0883L18.411 35.774L19.1339 37.0883L38.5478 26.4106L27.2014 37.1897C26.8203 37.5518 26.563 38.0248 26.4661 38.5415L24.1214 51.0465C23.6684 53.4624 26.6083 55.0131 28.3463 53.275L34.0989 47.5224L45.7481 57.0914C47.2134 58.295 49.4328 57.493 49.7901 55.6308L58.6177 9.6347C58.9957 7.66524 57.0174 6.07471 55.1751 6.86675L55.7675 8.2448L55.1751 6.86675L5.64143 28.1616C3.58964 29.0437 3.636 31.9686 5.71469 32.7852L17.0149 37.2246C17.7064 37.4963 18.4829 37.4463 19.1339 37.0883ZM33.7486 47.2346L33.7498 47.2356L33.7486 47.2346Z" stroke="#F97D56" stroke-width="3"/>
<path d="M29.5 31L18 38L23 53.5L26.5 39.5L32 33L29.5 31Z" fill="#F97D56"/>
</svg>
