<svg width="41" height="40" viewBox="0 0 41 40" fill="none" xmlns="http://www.w3.org/2000/svg">
<path d="M3.97235 22.0731L11.25 24.9322C11.7765 25.139 12.3678 25.101 12.8634 24.8284L24.803 18.2616L18.0587 24.6687L18.8155 25.4654L18.0587 24.6687C17.7685 24.9444 17.5726 25.3046 17.4988 25.698L15.9978 33.7035C15.6529 35.543 17.8913 36.7237 19.2147 35.4003L22.7421 31.873L30.2854 38.0694C31.4011 38.9858 33.091 38.3752 33.3631 36.9572L39.1844 6.62516C39.4722 5.12558 37.966 3.91451 36.5632 4.51758L3.91657 18.5526C2.3543 19.2242 2.38958 21.4513 3.97235 22.0731Z" stroke="#F97D56" stroke-width="2.28426"/>
<path d="M19.6667 20.6666L12 25.3333L15.3333 35.6666L17.6667 26.3333L21.3333 22L19.6667 20.6666Z" fill="#F97D56"/>
</svg>
