<svg width="40" height="42" viewBox="0 0 40 42" fill="none" xmlns="http://www.w3.org/2000/svg">
<path d="M12.3601 9.46565C11.1512 10.0566 9.58881 11.116 8.67181 12.5536C8.20566 13.2843 7.89149 14.1372 7.90579 15.0835C7.92017 16.0351 8.26576 17.0094 8.99799 17.9777C9.83704 19.0874 10.5613 20.1531 11.2593 21.1915C11.3294 21.2958 11.3993 21.3999 11.4691 21.5039C12.0906 22.4297 12.7012 23.3392 13.3512 24.2203C14.808 26.195 16.4771 28.0478 19.0286 29.7999C21.1211 31.2367 22.9269 31.5975 24.3763 31.3616C25.7218 31.1427 26.6809 30.4207 27.1982 29.7299C27.8071 29.3084 28.4855 28.5402 28.6965 27.4677C28.9313 26.2743 28.5545 24.8815 27.2278 23.4011C25.6175 21.6042 24.0222 21.0066 22.6874 21.3376C21.3971 21.6575 20.5932 22.8107 20.5932 23.9092C20.5932 24.0702 20.5537 24.133 20.5372 24.1551C20.5164 24.183 20.4733 24.2222 20.3779 24.2578C20.2253 24.3147 20.0212 24.3308 19.8312 24.3186L15.5475 19.7157C15.4062 19.407 15.2718 18.9702 15.2654 18.5775C15.2587 18.1657 15.3802 17.948 15.6288 17.8247C17.4711 16.9111 18.4599 14.5957 17.4865 12.6647C17.1289 11.9553 16.4118 11.3026 15.7329 10.7889C15.0301 10.2571 14.2633 9.79749 13.692 9.49202C13.2821 9.27281 12.7877 9.25661 12.3601 9.46565Z" stroke="#F97D56" stroke-width="1.52284"/>
<path d="M25.3402 1.52474H15.3266C8.80857 1.52474 3.52462 6.80869 3.52462 13.3268V26.8335C3.52462 31.4036 6.94024 35.176 11.3579 35.737V38.5606C11.3579 40.0894 13.0691 40.9945 14.3328 40.1341L20.6853 35.809H25.3402C31.8583 35.809 37.1422 30.5251 37.1422 24.007V13.3268C37.1422 6.80869 31.8583 1.52474 25.3402 1.52474Z" stroke="#F97D56" stroke-width="2.28426"/>
<path d="M22 11.667C23.5556 11.8892 26.6667 13.2003 26.6667 16.667" stroke="#F97D56" stroke-width="0.761421"/>
<path d="M22 8.66663C24.4444 9.02218 29.3333 11.12 29.3333 16.6666" stroke="#F97D56" stroke-width="0.761421"/>
<path d="M22 6.00024C25.3333 6.47432 32 9.27136 32 16.6669" stroke="#F97D56" stroke-width="0.761421"/>
</svg>
