<svg width="61" height="71" viewBox="0 0 61 71" fill="none" xmlns="http://www.w3.org/2000/svg">
<g filter="url(#filter0_d)">
<path d="M18.6662 14.2952C16.8634 15.166 14.5255 16.7395 13.1514 18.8694C12.4543 19.95 11.9849 21.2069 12.0004 22.5992C12.0159 23.999 12.5207 25.44 13.6102 26.8809C14.8714 28.5487 15.9597 30.1501 17.0068 31.7079C17.112 31.8644 17.2168 32.0206 17.3214 32.1764C18.254 33.5655 19.1681 34.9271 20.1411 36.246C22.3197 39.1992 24.8124 41.9658 28.6232 44.5826C31.7392 46.7223 34.4116 47.2488 36.5416 46.9022C38.5336 46.578 39.9457 45.5049 40.6973 44.4912C41.5916 43.8783 42.5951 42.7503 42.9051 41.1741C43.2465 39.439 42.7046 37.3934 40.7357 35.1965C38.3378 32.5208 35.9951 31.6657 34.0652 32.1443C32.1937 32.6084 31.0318 34.2808 31.0318 35.8638C31.0318 36.1313 30.9652 36.2566 30.9195 36.3177C30.8683 36.3864 30.7785 36.4594 30.6164 36.5199C30.3484 36.6198 29.9959 36.6419 29.6806 36.6156L23.2016 29.6537C22.9804 29.1769 22.766 28.4915 22.7558 27.8686C22.7453 27.219 22.9402 26.8278 23.3799 26.6097C26.0824 25.2695 27.5226 21.8777 26.1026 19.061C25.5758 18.0159 24.5041 17.042 23.4749 16.2676C22.4134 15.4688 21.2573 14.7804 20.4084 14.3301C19.8697 14.0443 19.2247 14.0254 18.6662 14.2952Z" stroke="#F97D56" stroke-width="2"/>
<path d="M40 2.5H21C12.4396 2.5 5.5 9.43959 5.5 18V40.25C5.5 47.0606 10.6385 52.6711 17.25 53.416V58.1094C17.25 60.1172 19.4973 61.3058 21.157 60.1759L30.9622 53.5H40C48.5604 53.5 55.5 46.5604 55.5 38V18C55.5 9.43959 48.5604 2.5 40 2.5Z" stroke="#F97D56" stroke-width="3"/>
<path d="M33 17.5C35.3333 17.8333 40 19.8 40 25" stroke="#F97D56"/>
<path d="M33 13C36.6667 13.5333 44 16.68 44 25" stroke="#F97D56"/>
<path d="M33 9C38 9.71111 48 13.9067 48 25" stroke="#F97D56"/>
</g>
<defs>
<filter id="filter0_d" x="0" y="1" width="61" height="69.1162" filterUnits="userSpaceOnUse" color-interpolation-filters="sRGB">
<feFlood flood-opacity="0" result="BackgroundImageFix"/>
<feColorMatrix in="SourceAlpha" type="matrix" values="0 0 0 0 0 0 0 0 0 0 0 0 0 0 0 0 0 0 127 0"/>
<feOffset dy="4"/>
<feGaussianBlur stdDeviation="2"/>
<feColorMatrix type="matrix" values="0 0 0 0 0 0 0 0 0 0 0 0 0 0 0 0 0 0 0.25 0"/>
<feBlend mode="normal" in2="BackgroundImageFix" result="effect1_dropShadow"/>
<feBlend mode="normal" in="SourceGraphic" in2="effect1_dropShadow" result="shape"/>
</filter>
</defs>
</svg>
