<svg width="38" height="39" viewBox="0 0 38 39" fill="none" xmlns="http://www.w3.org/2000/svg">
<path d="M26.317 15.3464C25.3698 12.7635 20.8475 7.41258 13.2902 12.2612C9.75737 14.6395 10.1536 22.7489 10.295 23.8458C10.5195 25.5876 11.8311 30.8272 19.2808 28.142C22.0456 27.0986 24.6312 22.4904 25.5784 20.3167M25.5784 20.3167L27.8825 10.5734M25.5784 20.3167C24.5032 24.4595 24.2882 31.7325 32.0298 27.6817C37.0987 24.9198 36.1003 13.1819 35.7163 11.8776C35.3323 10.5734 33.1818 4.05231 26.8841 2.59465C20.5864 1.137 17.4645 1.99368 15.0567 2.59465C12.3625 3.26711 7.35994 6.15579 5.76376 9.65278C4.8509 11.6527 2.00052 17.9725 2.00049 21.9278C2.00045 25.8909 3.92984 30.5591 6.22448 32.6684C10.5195 36.6165 12.6758 37.3483 18.8967 36.8112C23.8734 36.3816 28.9065 34.3307 30.8009 33.3589" stroke="#F97D56" stroke-width="2.23333" stroke-linecap="round"/>
</svg>
